<svg width="1024" height="1024" viewBox="0 0 1024 1024" fill="none" xmlns="http://www.w3.org/2000/svg">
<path d="M594.187 220.987L631.22 220.952C656.158 220.904 677.981 225.854 677.863 256.519L677.67 340.969L712.833 340.942C741.883 340.944 775.954 339.656 776 379.283L775.869 456.239L775.882 734.844C775.898 786.829 775.135 795.119 720.95 795.08L677.67 795.061L624.79 795.078C619.656 795.076 597.43 795.438 594.187 794.356C593.273 793.946 571.049 795.074 568.148 795.082L402.179 795.113C346.532 795.219 348.224 785.892 348.222 737.376L348.081 701.051C348.034 688.006 348.365 679.741 347.233 666.434C344.278 666.846 341.722 667.24 338.852 666.434C316.993 666.587 295.02 666.002 273.166 666.8C243.554 667.881 248.827 631.422 248.821 612.205L248.841 548.497L248.858 276.87C248.848 257.61 244.116 227.482 269.609 221.976C285.277 218.59 329.359 221.187 347.233 220.987C354.13 220.562 366.504 220.975 373.739 220.979L594.187 220.987Z" fill="#FBF9FF"/>
<path d="M677.67 456.239C709.53 455.471 743.732 456.427 775.869 456.239L775.882 734.843C775.898 786.829 775.135 795.119 720.949 795.08L677.67 795.061L624.79 795.078C619.656 795.076 597.43 795.438 594.187 794.356C594.476 791.457 594.252 783.622 594.241 780.489L594.187 666.434H677.67V456.239Z" fill="#7C4DFF"/>
<path d="M594.187 666.435H677.67V795.061L624.79 795.078C619.656 795.076 597.43 795.438 594.187 794.356C594.476 791.457 594.252 783.622 594.241 780.489L594.187 666.435Z" fill="#9370DB"/>
<path d="M594.187 220.987L631.22 220.952C656.158 220.904 677.98 225.854 677.863 256.519L677.669 340.969C671.72 341.613 658.273 340.991 651.478 340.981L594.187 340.969H347.233C347.924 331.818 347.217 312.881 347.213 302.845L347.233 220.987C354.13 220.562 366.504 220.975 373.739 220.979L594.187 220.987Z" fill="#AA8BFF"/>
<path d="M594.187 220.987L631.22 220.952C656.158 220.904 677.981 225.854 677.863 256.519L677.67 340.969C671.721 341.613 658.273 340.991 651.478 340.981L594.187 340.969L594.191 260.502C594.187 248.665 593.621 232.359 594.187 220.987Z" fill="#5533CC"/>
<path d="M594.187 340.969L651.478 340.981C658.273 340.991 671.72 341.613 677.67 340.969L712.833 340.942C741.883 340.944 775.954 339.656 776 379.283L775.869 456.239C743.732 456.427 709.53 455.471 677.67 456.239V666.434H594.187C594.291 658.197 594.513 648.247 594.187 640.113V613.188V577.7C599.929 578.019 606.715 577.926 612.48 577.7C609.233 577.043 597.969 577.58 594.187 577.7V541.856C593.669 540.076 593.984 509.764 594.187 505.988H538.31C540.6 505.548 551.365 505.938 554.529 505.949L594.187 505.988V469.225C569.394 469.221 543.697 469.606 518.987 469.225C522.34 468.464 539.268 469.212 543.986 469.217L575.961 469.212C581.597 469.192 588.763 468.875 594.187 469.225V434.711C594.562 432.702 594.169 413.732 594.169 410.022L594.187 340.969Z" fill="#DFD9F2"/>
<path d="M677.669 340.969L712.833 340.942C741.883 340.944 775.953 339.656 776 379.283L775.868 456.239C743.732 456.427 709.53 455.471 677.669 456.239V340.969Z" fill="#5533CC"/>
<path d="M594.187 505.988C603.172 505.918 615.662 504.153 622.266 510.848C629.567 518.249 629.636 529.923 622.051 537.161C614.707 544.404 603.646 541.714 594.187 541.856C593.669 540.076 593.984 509.764 594.187 505.988Z" fill="#BC3A52"/>
<path d="M594.187 577.7C599.929 578.019 606.715 577.926 612.48 577.7C632.624 582.125 632.771 611.616 610.96 612.985C605.141 613.352 599.894 613.257 594.187 613.188V577.7Z" fill="#9370DB"/>
<path d="M594.187 434.711C607.825 434.523 627.009 431.612 627.502 452.22C627.925 469.895 606.601 469.737 594.187 469.225V434.711Z" fill="#9370DB"/>
<path d="M248.841 548.497L248.858 276.87C248.848 257.61 244.116 227.482 269.608 221.976C285.277 218.59 329.358 221.187 347.233 220.987L347.213 302.845C347.217 312.881 347.924 331.818 347.233 340.969C346.773 346.584 347.188 357.654 347.21 363.603L347.233 548.497H248.841Z" fill="#AA8BFF"/>
<path d="M594.187 640.114C594.513 648.247 594.291 658.197 594.187 666.435L594.241 780.489C594.253 783.622 594.477 791.457 594.187 794.356C593.273 793.947 571.049 795.075 568.148 795.082L402.179 795.113C346.532 795.219 348.224 785.892 348.222 737.376L348.081 701.051C348.035 688.006 348.365 679.741 347.233 666.435C344.278 666.846 341.722 667.24 338.852 666.435C341.699 666.498 344.384 666.479 347.233 666.435C356.831 666.869 369.463 666.442 379.316 666.44L543.919 666.433C560.513 666.435 577.661 666.707 594.187 666.435C594.16 657.677 594.083 648.867 594.187 640.114Z" fill="#AA8BFF"/>
<path d="M248.841 548.497H347.233V666.434C344.384 666.479 341.699 666.498 338.852 666.434C316.993 666.587 295.02 666.002 273.166 666.799C243.554 667.881 248.827 631.422 248.821 612.205L248.841 548.497Z" fill="#9370DB"/>
<path d="M594.187 541.856L437.87 541.893C430.796 541.905 424.1 542.119 416.926 541.457C400.01 539.898 386.072 505.623 430.441 505.947L538.309 505.988H594.187C593.984 509.764 593.669 540.076 594.187 541.856Z" fill="#FF4D6D"/>
<path d="M594.187 577.7C597.969 577.58 609.234 577.043 612.481 577.7C606.715 577.926 599.929 578.019 594.187 577.7V613.188L435.668 613.203C429.296 613.2 421.396 613.574 415.321 612.707C401.803 610.553 396.506 592.312 406.373 583.131C414.089 575.95 430.683 577.654 440.847 577.669L594.187 577.7Z" fill="#B8B0E8"/>
<path d="M594.187 434.711V469.225C588.763 468.875 581.597 469.192 575.961 469.212L543.986 469.217C539.268 469.212 522.34 468.464 518.987 469.225L449.658 469.237C438.77 469.235 426.202 469.633 415.489 468.638C403.017 466.538 396.927 452.681 403.525 442.162C409.674 432.362 424.398 434.709 435.048 434.705L594.187 434.711Z" fill="#B8B0E8"/>
</svg>
